<svg xmlns="http://www.w3.org/2000/svg" xmlns:xlink="http://www.w3.org/1999/xlink" width="400" zoomAndPan="magnify" viewBox="0 0 300 374.999991" height="500" preserveAspectRatio="xMidYMid meet" version="1.0"><path fill="#b7cbe4" d="M 75.113281 297.570312 C 75.132812 292.230469 77.355469 282.328125 83.203125 278.523438 C 75.851562 279.515625 72.777344 292.855469 72.183594 298.796875 C 72.121094 299.480469 71.816406 300.003906 71.40625 300.390625 C 71.335938 300.472656 71.292969 300.554688 71.210938 300.617188 C 65.691406 306.527344 61.554688 317.464844 64.410156 325.667969 C 65.457031 328.664062 67.484375 330.074219 69.707031 330.257812 C 63.980469 324.828125 68.476562 310.324219 72.695312 302.160156 C 72.933594 300.925781 73.414062 299.65625 74.253906 298.378906 C 74.488281 298.007812 74.796875 297.742188 75.113281 297.570312 Z M 77.511719 325.585938 C 78.953125 323.058594 80.101562 320.410156 81.289062 317.769531 C 77.847656 315.039062 74.40625 311.40625 73.066406 307.410156 C 69.625 315.878906 66.960938 327.4375 73.125 329.605469 C 74.835938 328.835938 76.425781 327.445312 77.511719 325.585938 Z M 94.765625 294.960938 C 95.277344 292.800781 96.609375 290.664062 98.414062 289.304688 C 94.367188 286.03125 90.824219 281.765625 86.359375 279.453125 C 79.988281 281.113281 77.683594 292.136719 77.53125 297.058594 C 78.421875 296.914062 79.332031 296.75 80.246094 296.609375 C 80.378906 295.644531 80.632812 294.785156 80.929688 294.132812 C 81.441406 293.007812 81.996094 292.261719 82.4375 291.738281 C 83.367188 290.695312 83.921875 290.492188 84.175781 290.675781 C 84.472656 290.871094 84.371094 291.441406 83.890625 292.628906 C 83.59375 293.476562 82.96875 294.625 82.691406 296.238281 C 86.613281 295.675781 90.679688 295.214844 94.765625 294.960938 Z M 102.539062 292.066406 C 102.386719 291.996094 102.203125 291.902344 102.046875 291.832031 C 101.503906 291.523438 100.960938 291.175781 100.449219 290.828125 C 99.007812 291.605469 97.820312 293.222656 97.277344 294.828125 C 98.554688 294.765625 99.824219 294.757812 101.105469 294.734375 C 101.433594 293.773438 101.914062 292.863281 102.539062 292.066406 Z M 119.980469 322.035156 C 119.941406 321.441406 119.910156 320.839844 119.910156 320.246094 C 117.339844 319.835938 114.695312 319.109375 111.984375 318.054688 C 100.746094 313.667969 91.121094 306.285156 80.039062 301.464844 C 79.28125 301.589844 78.554688 301.710938 77.828125 301.84375 C 77.316406 303.019531 77.253906 304.226562 77.480469 305.375 C 92.789062 307.839844 104.445312 319.671875 119.980469 322.035156 Z M 121.414062 328.511719 C 120.8125 327.222656 120.441406 325.851562 120.21875 324.417969 C 120.105469 324.429688 119.980469 324.460938 119.847656 324.449219 C 104.609375 322.332031 93.167969 310.742188 78.453125 307.941406 C 80.101562 310.855469 83.265625 313.421875 85.652344 315.089844 C 85.90625 315.265625 86.082031 315.449219 86.246094 315.664062 C 97.582031 320.808594 109.195312 325.820312 121.414062 328.511719 Z M 125.542969 293.765625 C 125.285156 293.816406 125.011719 293.824219 124.722656 293.773438 C 117.941406 292.824219 111.398438 295.195312 104.875 293.058594 C 104.394531 293.558594 104.015625 294.132812 103.707031 294.757812 C 108.796875 294.867188 113.773438 295.371094 118.402344 296.476562 C 119.273438 296.679688 119.765625 297.230469 119.992188 297.855469 C 121.476562 299.308594 123.359375 300.085938 125.152344 301.109375 C 125.285156 301.167969 125.398438 301.25 125.511719 301.324219 C 125.429688 298.796875 125.449219 296.269531 125.542969 293.765625 Z M 124.632812 329.207031 C 125.171875 329.316406 125.707031 329.429688 126.25 329.542969 C 124.722656 326.75 123.585938 323.875 123.320312 320.632812 C 122.980469 320.613281 122.644531 320.582031 122.316406 320.550781 C 122.347656 323.476562 122.613281 326.984375 124.632812 329.207031 Z M 129.894531 103.3125 C 130.121094 102.636719 130.222656 101.972656 130.292969 101.277344 C 121.242188 89.871094 113.007812 78.058594 103.214844 67.09375 C 94.253906 57.050781 85.457031 46.894531 78.585938 35.273438 C 77.898438 35.539062 77.242188 35.867188 76.597656 36.308594 C 82.40625 45.152344 86.296875 51.078125 88.746094 54.777344 C 91.265625 58.757812 92.054688 60.394531 91.777344 60.597656 C 91.511719 60.792969 90.238281 59.496094 87.351562 55.769531 C 85.90625 53.910156 84.035156 51.445312 81.730469 48.222656 C 79.785156 45.359375 77.429688 41.890625 74.722656 37.800781 C 72.726562 39.691406 71.039062 42.207031 69.726562 44.621094 C 71.222656 46.433594 72.636719 48.109375 73.894531 49.714844 C 75.523438 52.070312 77.019531 54.175781 78.339844 56.078125 C 80.929688 59.914062 82.824219 62.992188 84.308594 65.292969 C 87.28125 69.875 88.242188 71.777344 87.964844 71.972656 C 87.71875 72.167969 86.265625 70.644531 82.898438 66.253906 C 81.21875 64.066406 79.191406 61.089844 76.515625 57.335938 C 75.175781 55.476562 73.667969 53.429688 72.011719 51.136719 C 70.957031 49.796875 69.789062 48.425781 68.558594 46.953125 C 68.394531 47.324219 68.230469 47.660156 68.085938 47.996094 C 83.625 69.160156 98.660156 92.195312 117.371094 110.707031 C 117.769531 110.707031 117.769531 110.707031 117.769531 110.707031 C 118.003906 110.707031 118.21875 110.738281 118.425781 110.789062 C 118.476562 110.71875 118.515625 110.65625 118.558594 110.59375 C 112.15625 105.183594 109.144531 100.46875 107.097656 97.707031 C 105.089844 94.617188 104.507812 93.328125 104.78125 93.136719 C 105.039062 92.941406 106.113281 93.882812 108.4375 96.683594 C 110.765625 99.140625 113.980469 103.578125 120.011719 108.660156 C 122.089844 106.359375 125.121094 104.539062 128.441406 103.621094 C 128.910156 103.488281 129.394531 103.40625 129.894531 103.3125 Z M 129.414062 330.257812 C 130.039062 330.402344 130.644531 330.546875 131.265625 330.699219 C 129.320312 327.742188 128.5625 323.917969 127.753906 320.5625 C 127.058594 320.613281 126.390625 320.644531 125.714844 320.664062 C 126.074219 324.195312 127.601562 327.222656 129.414062 330.257812 Z M 139.632812 314.875 C 138.609375 313.964844 137.554688 313.054688 136.5 312.175781 C 133.601562 311.285156 130.722656 310.355469 127.929688 309.21875 C 127.652344 309.105469 127.425781 308.972656 127.242188 308.789062 C 126.761719 308.644531 126.308594 308.359375 125.953125 307.847656 C 123.628906 304.566406 118.945312 303.921875 116.234375 300.925781 C 106.503906 298.777344 94.734375 299.390625 84.308594 300.820312 C 90.835938 304.011719 96.785156 307.789062 103.277344 311.222656 C 115.660156 317.789062 126.617188 320.644531 139.632812 314.875 Z M 143.957031 318.730469 C 143.148438 318.027344 142.367188 317.339844 141.601562 316.632812 C 137.699219 318.457031 133.910156 319.683594 130.128906 320.277344 C 130.355469 321.257812 130.589844 322.292969 130.847656 323.34375 C 135.425781 322.3125 139.808594 320.960938 143.957031 318.730469 Z M 150.796875 324.03125 C 149.097656 322.933594 147.46875 321.699219 145.882812 320.386719 C 141.375 322.976562 136.542969 324.511719 131.492188 325.667969 C 131.871094 326.902344 132.375 328.101562 133.039062 329.144531 C 139.441406 329.714844 145.246094 326.925781 150.796875 324.03125 Z M 149.753906 156.980469 C 149.753906 156.601562 149.753906 156.214844 149.753906 155.84375 C 145.328125 158.496094 139.203125 158.066406 134.277344 156.058594 C 134.339844 156.234375 134.421875 156.40625 134.484375 156.601562 C 134.515625 156.714844 134.535156 156.808594 134.566406 156.917969 C 134.574219 156.949219 134.574219 157 134.597656 157.03125 C 139.03125 160.898438 145.164062 160.847656 149.753906 156.980469 Z M 152.222656 142.140625 C 152.078125 141.984375 151.914062 141.824219 151.769531 141.648438 C 151.371094 141.554688 150.941406 141.484375 150.511719 141.484375 C 150.113281 141.566406 149.742188 141.617188 149.382812 141.660156 C 149.066406 141.699219 148.757812 141.730469 148.460938 141.761719 C 147.386719 142.097656 146.433594 142.703125 145.820312 143.582031 C 146.507812 144.101562 147.132812 144.664062 147.757812 145.257812 C 148.15625 144.378906 148.945312 143.589844 149.835938 143.082031 C 150.574219 142.671875 151.390625 142.3125 152.222656 142.140625 Z M 155.039062 326.382812 C 154.363281 326.074219 153.707031 325.757812 153.050781 325.390625 C 152.957031 325.554688 152.824219 325.675781 152.640625 325.789062 C 147.324219 328.550781 141.746094 331.351562 135.742188 331.597656 C 138.109375 332.050781 140.496094 332.367188 142.859375 332.46875 C 147.378906 331.597656 151.628906 329.480469 155.039062 326.382812 Z M 154.15625 146.566406 C 154.78125 146.027344 155.128906 145.523438 154.78125 144.757812 C 154.105469 143.355469 152.414062 144.429688 151.433594 144.941406 C 150.398438 145.496094 149.027344 146.96875 150.777344 147.734375 C 151.535156 148.050781 152.742188 147.539062 153.582031 146.996094 C 153.808594 146.855469 154.011719 146.710938 154.15625 146.566406 Z M 155.273438 124.074219 C 155.804688 122.960938 155.867188 121.742188 155.785156 120.527344 C 151.761719 115.351562 145.441406 110.246094 138.980469 108.5 C 134.964844 107.414062 130.878906 107.179688 127.140625 109.347656 C 124.660156 110.789062 120.21875 113.347656 122.4375 117.222656 C 122.726562 116.855469 123.011719 116.515625 123.300781 116.199219 C 124.496094 114.890625 125.714844 113.890625 126.824219 113.152344 C 127.960938 112.414062 128.902344 111.957031 129.699219 111.761719 C 130.449219 111.566406 130.867188 111.648438 130.960938 111.84375 C 131.074219 112.046875 130.753906 112.386719 130.273438 112.875 C 129.792969 113.355469 129.125 114.0625 128.285156 114.910156 C 127.476562 115.769531 126.535156 116.84375 125.605469 118.101562 C 124.539062 119.546875 121.355469 122.632812 122.070312 124.648438 C 123.289062 128.085938 125.941406 122.960938 127.027344 122.09375 C 129.21875 119.351562 131.667969 117.703125 133.4375 116.546875 C 135.273438 115.433594 136.355469 114.910156 136.695312 115.167969 C 137.074219 115.453125 136.335938 116.761719 134.914062 118.296875 C 132.976562 120.496094 128.910156 123.257812 128.011719 126.089844 C 127.960938 126.234375 127.929688 126.355469 127.898438 126.46875 C 127.160156 129.34375 130.5625 126.246094 131.554688 125.335938 C 134.902344 122.226562 138.292969 120.035156 142.71875 118.582031 C 143.148438 118.441406 143.546875 118.417969 143.90625 118.5 C 143.914062 118.5 143.9375 118.480469 143.964844 118.5 C 146.863281 118.554688 148.914062 120.148438 149.867188 122.847656 C 149.949219 123.082031 149.976562 123.328125 149.96875 123.566406 C 150.007812 123.585938 150.039062 123.59375 150.089844 123.617188 C 150.378906 123.726562 150.683594 123.820312 150.972656 123.964844 C 151.226562 124.136719 151.484375 124.3125 151.761719 124.476562 C 152.304688 124.792969 152.621094 125.304688 153 125.722656 L 153.144531 125.875 L 153.175781 125.925781 L 153.308594 126.152344 C 153.328125 126.171875 153.359375 126.234375 153.359375 126.234375 L 153.480469 126.542969 C 153.53125 126.644531 153.582031 126.746094 153.625 126.859375 C 154.011719 126.519531 154.382812 126.171875 154.78125 125.84375 C 154.78125 125.496094 154.875 125.160156 155.039062 124.863281 C 155.078125 124.609375 155.160156 124.332031 155.273438 124.074219 Z M 157.382812 163.351562 C 156.398438 162.15625 155.324219 161.019531 154.1875 159.96875 C 153.769531 160.613281 153.082031 160.9375 152.363281 161.011719 C 151.453125 161.707031 150.480469 162.332031 149.488281 162.832031 C 149.261719 163.351562 149.058594 163.863281 148.882812 164.324219 C 148.71875 165.746094 148.402344 166.996094 148.011719 168.007812 C 147.386719 169.613281 146.703125 170.746094 146.066406 171.546875 C 145.441406 172.34375 144.898438 172.8125 144.488281 173.039062 C 144.109375 173.292969 143.886719 173.324219 143.761719 173.191406 C 143.628906 173.078125 143.628906 172.84375 143.792969 172.445312 C 143.957031 172.046875 144.242188 171.472656 144.621094 170.65625 C 145.023438 169.835938 145.472656 168.742188 145.921875 167.320312 C 145.996094 167.023438 146.078125 166.707031 146.136719 166.410156 C 146.210938 166.074219 146.28125 165.683594 146.363281 165.285156 C 146.433594 164.875 146.476562 164.4375 146.527344 163.996094 C 141.949219 165.335938 137.054688 164.664062 133 161.847656 C 131.6875 164.835938 130.46875 167.925781 130.039062 171.085938 C 129.125 177.773438 134.460938 185.414062 141.46875 180.21875 C 147.378906 175.839844 152.570312 169.4375 157.382812 163.351562 Z M 158.425781 132.074219 C 157.515625 130.910156 156.667969 129.671875 155.867188 128.371094 C 155.375 128.851562 154.84375 129.304688 154.269531 129.710938 C 154.21875 129.742188 154.167969 129.742188 154.136719 129.761719 C 154.136719 130.050781 154.125 130.324219 154.105469 130.582031 C 154.464844 131.050781 154.71875 131.582031 154.792969 132.117188 C 154.894531 132.464844 154.925781 132.78125 154.925781 133.085938 C 154.933594 133.28125 154.933594 133.324219 154.933594 133.628906 L 154.90625 133.976562 C 154.851562 134.398438 154.78125 134.917969 154.648438 135.417969 C 154.585938 135.796875 154.445312 136.15625 154.332031 136.484375 C 154.609375 136.308594 154.875 136.15625 155.128906 135.960938 C 156.316406 134.734375 157.445312 133.464844 158.425781 132.074219 Z M 158.601562 254.601562 C 158.398438 253.730469 158.222656 252.839844 158.039062 251.960938 C 157.894531 251.542969 157.773438 251.132812 157.660156 250.660156 C 155.988281 251.101562 153.960938 251.992188 151.738281 252.554688 C 147.40625 253.832031 143.261719 253.351562 140.546875 252.902344 C 137.8125 252.410156 136.132812 251.910156 136.164062 251.542969 C 136.195312 251.164062 137.933594 250.988281 140.71875 251 C 143.476562 250.957031 147.183594 251.101562 151.023438 249.945312 C 151.65625 249.773438 152.28125 249.578125 152.90625 249.402344 C 153.542969 249.230469 154.136719 249.035156 154.730469 248.863281 C 155.273438 248.667969 155.960938 248.515625 156.574219 248.351562 C 156.839844 248.289062 157.148438 248.257812 157.433594 248.21875 C 157.289062 247.152344 157.15625 246.078125 157.054688 244.996094 C 155.773438 245.742188 154.554688 246.191406 153.511719 246.480469 C 151.933594 246.90625 150.683594 247.050781 149.722656 247.09375 C 147.816406 247.132812 147.101562 246.785156 147.089844 246.480469 C 147.070312 246.109375 147.777344 245.875 149.488281 245.394531 C 150.347656 245.167969 151.472656 244.871094 152.824219 244.371094 C 154.023438 243.941406 155.449219 243.296875 156.808594 242.265625 C 156.554688 238.828125 156.472656 235.390625 156.523438 232.117188 C 155.355469 233.671875 154.136719 234.929688 153 235.890625 C 150.316406 238.132812 148.351562 239.023438 148.15625 238.765625 C 147.898438 238.429688 149.464844 236.996094 151.679688 234.53125 C 152.785156 233.304688 153.960938 231.769531 155.046875 229.949219 C 155.507812 229.121094 155.929688 228.210938 156.316406 227.269531 C 155.097656 227.882812 153.851562 228.332031 152.683594 228.671875 C 150.398438 229.304688 148.320312 229.53125 146.589844 229.671875 C 143.167969 229.929688 141.027344 229.949219 140.957031 229.582031 C 140.894531 229.214844 142.941406 228.539062 146.300781 227.8125 C 148.914062 227.167969 152.507812 226.503906 155.609375 224.578125 C 147.632812 221.910156 139.808594 218.996094 131.511719 217.441406 C 126.023438 220.457031 119.960938 221.226562 113.773438 221.308594 C 110.773438 230.347656 111.335938 241.292969 116.152344 248.945312 C 121.242188 257.003906 131.347656 257.199219 139.859375 258.875 C 139.953125 258.875 140.042969 258.863281 140.15625 258.863281 C 146.753906 259.121094 152.445312 256.257812 158.601562 254.601562 Z M 161.910156 328.324219 C 160.375 328.140625 158.910156 327.804688 157.515625 327.34375 C 155.582031 329.257812 153.367188 330.871094 151.003906 332.109375 C 155.015625 331.640625 159.347656 330.597656 161.910156 328.324219 Z M 159.257812 160.988281 C 159.6875 160.425781 160.117188 159.886719 160.546875 159.363281 C 158.886719 156.460938 157.546875 153.308594 156.316406 150.160156 C 155.804688 150.589844 155.191406 150.945312 154.554688 151.210938 C 154.554688 152.304688 154.554688 154.105469 154.554688 155.691406 C 156.265625 157.296875 157.667969 159.199219 159.257812 160.988281 Z M 163.785156 326.042969 C 164.164062 325.144531 163.980469 324.386719 162.996094 323.550781 C 161.847656 322.566406 160.34375 322.035156 158.828125 322.085938 C 158.4375 322.097656 158.089844 322.035156 157.804688 321.921875 C 157.433594 321.839844 157.066406 321.667969 156.726562 321.378906 C 152.34375 317.75 147.265625 315.664062 142 313.925781 C 148.410156 319.734375 154.90625 325.707031 163.785156 326.042969 Z M 166.632812 289.242188 C 166.722656 288.988281 166.835938 288.761719 166.96875 288.566406 C 166.457031 287.566406 165.925781 286.5625 165.464844 285.5 C 162.125 278.011719 162.617188 269.371094 162.023438 261.351562 C 161.46875 260.605469 160.96875 259.835938 160.515625 259.039062 C 159.125 259.386719 157.75 259.785156 156.398438 260.214844 C 156.152344 262.457031 155.949219 264.511719 155.734375 266.433594 C 155.582031 268.777344 155.4375 270.902344 155.304688 272.816406 C 154.964844 276.671875 154.792969 279.691406 154.382812 281.972656 C 153.542969 286.542969 153.019531 288.199219 152.683594 288.136719 C 152.363281 288.085938 152.304688 286.308594 152.683594 281.796875 C 152.875 279.527344 152.886719 276.53125 153.101562 272.714844 C 153.175781 270.78125 153.277344 268.632812 153.390625 266.269531 C 153.53125 264.644531 153.707031 262.886719 153.902344 261.035156 C 150 262.292969 146.128906 263.488281 141.917969 263.652344 C 141.664062 265.09375 141.582031 266.546875 141.539062 267.917969 C 141.46875 270.023438 141.394531 272.019531 141.027344 273.839844 C 140.882812 274.769531 140.578125 275.558594 140.300781 276.324219 C 140.035156 277.050781 139.828125 277.808594 139.53125 278.433594 C 138.980469 279.667969 138.496094 280.765625 138.066406 281.703125 C 137.648438 282.625 137.300781 283.394531 137.011719 284.046875 C 136.789062 284.722656 136.582031 285.242188 136.398438 285.664062 C 136.050781 286.480469 135.792969 286.851562 135.628906 286.820312 C 135.457031 286.777344 135.394531 286.378906 135.488281 285.457031 C 135.515625 285 135.597656 284.386719 135.734375 283.648438 C 135.886719 282.910156 136.171875 282.082031 136.480469 281.082031 C 136.796875 280.078125 137.21875 278.984375 137.667969 277.707031 C 137.925781 277.070312 138.066406 276.394531 138.292969 275.699219 C 138.496094 274.976562 138.753906 274.226562 138.847656 273.441406 C 139.121094 271.84375 139.152344 269.992188 139.183594 267.855469 C 139.214844 266.558594 139.246094 265.136719 139.472656 263.621094 C 139.296875 263.621094 139.121094 263.601562 138.929688 263.570312 C 137.390625 263.253906 135.824219 262.976562 134.226562 262.691406 C 134.226562 262.824219 134.226562 262.945312 134.207031 263.089844 C 132.269531 275.742188 129.894531 288.242188 130.304688 301.015625 C 131.511719 299.257812 132.78125 297.753906 133.859375 296.300781 C 134.769531 295.054688 135.621094 293.917969 136.253906 292.691406 C 136.59375 292.097656 136.929688 291.515625 137.25 290.953125 C 137.523438 290.359375 137.792969 289.785156 138.046875 289.210938 C 140.074219 284.671875 141.039062 280.835938 141.835938 277.929688 C 143.320312 272.089844 143.9375 269.828125 144.285156 269.910156 C 144.589844 269.960938 144.570312 272.292969 143.507812 278.320312 C 142.890625 281.304688 142.113281 285.285156 140.074219 290.101562 C 139.828125 290.714844 139.550781 291.320312 139.265625 291.953125 C 138.949219 292.558594 138.609375 293.179688 138.253906 293.824219 C 137.597656 295.136719 136.695312 296.414062 135.742188 297.710938 C 134.054688 300.023438 132.035156 302.386719 130.664062 305.167969 C 137.699219 307.867188 144.960938 309.546875 151.628906 312.6875 C 157.414062 305.566406 163.804688 298.058594 166.632812 289.242188 Z M 179.964844 259.640625 C 179.84375 257.953125 179.738281 256.257812 179.679688 254.578125 C 178.164062 255.234375 176.65625 255.949219 175.183594 256.707031 C 175.183594 256.769531 175.222656 256.800781 175.222656 256.859375 C 175.203125 258.507812 175.296875 260.125 175.429688 261.738281 C 176.902344 260.941406 178.417969 260.246094 179.964844 259.640625 Z M 185.710938 257.882812 C 185.546875 256.050781 185.425781 254.230469 185.371094 252.410156 C 184.234375 252.757812 183.140625 253.15625 182.035156 253.585938 C 182.085938 255.296875 182.175781 257.054688 182.289062 258.824219 C 183.425781 258.476562 184.5625 258.160156 185.710938 257.882812 Z M 186.703125 313.679688 C 187.625 313.636719 188.507812 313.484375 189.328125 313.28125 C 184.125 294.542969 173.125 277.816406 172.847656 257.953125 C 170.820312 259.050781 168.800781 260.203125 166.824219 261.382812 C 167.796875 272.886719 168.332031 282.492188 174.835938 292.660156 C 176.226562 294.828125 177.710938 297.039062 178.929688 299.347656 C 181.777344 303.980469 184.492188 308.699219 186.703125 313.679688 Z M 184.308594 231.679688 C 185.023438 232.3125 188.8125 231.65625 188.90625 231.851562 C 186.570312 226.59375 183.394531 221.285156 179.226562 217.644531 C 173.554688 212.652344 164.820312 212.777344 162.535156 221.101562 C 161 226.707031 160.730469 234.019531 161.304688 241.066406 C 163.578125 239.257812 166.035156 237.824219 168.628906 236.667969 C 167.769531 232.199219 166.253906 229.304688 165.738281 227.414062 C 165.09375 225.480469 165.042969 224.640625 165.351562 224.519531 C 165.65625 224.375 166.253906 224.96875 167.285156 226.707031 C 167.796875 227.585938 168.421875 228.761719 169.140625 230.347656 C 169.457031 231.167969 169.816406 232.078125 170.195312 233.058594 C 170.441406 233.878906 170.667969 234.808594 170.882812 235.757812 C 172.40625 235.1875 173.972656 234.707031 175.570312 234.277344 C 174.003906 228.394531 172.695312 224.609375 171.9375 222.195312 C 171.054688 219.722656 170.910156 218.667969 171.21875 218.523438 C 171.507812 218.382812 172.191406 219.167969 173.503906 221.542969 C 174.671875 223.84375 176.289062 227.730469 177.90625 233.703125 C 179.332031 233.367188 180.773438 233.078125 182.207031 232.84375 C 180.691406 229.121094 179.8125 226.5625 179.414062 224.898438 C 178.980469 223.210938 179.023438 222.492188 179.351562 222.390625 C 179.667969 222.277344 180.179688 222.789062 181.011719 224.3125 C 182.097656 226.339844 182.597656 230.125 184.308594 231.679688 Z M 192.082031 332.367188 C 191.117188 331.273438 190.402344 329.929688 189.726562 328.601562 C 186.457031 322.210938 185.167969 315.265625 182.097656 308.75 C 182.230469 309.609375 182.125 310.457031 182.230469 311.316406 C 182.289062 312.175781 182.546875 313.054688 183.34375 313.933594 C 183.34375 314.273438 183.3125 314.671875 183.285156 315.171875 C 183.179688 317.964844 183.683594 320.53125 184.65625 323.121094 C 184.859375 323.652344 184.859375 324.132812 184.738281 324.542969 C 184.777344 324.992188 184.707031 325.472656 184.421875 325.964844 C 183.695312 327.222656 183.027344 328.632812 182.496094 330.085938 C 185.546875 331.109375 188.804688 331.84375 192.082031 332.367188 Z M 190.914062 237.089844 C 190.84375 236.773438 190.78125 236.433594 190.730469 236.097656 C 190.605469 235.945312 190.515625 235.75 190.433594 235.542969 C 190.246094 235.074219 190.0625 234.59375 189.867188 234.121094 C 179.957031 235.351562 169.203125 237.070312 161.59375 243.972656 C 161.703125 244.964844 161.847656 245.957031 161.992188 246.929688 C 171.128906 242.234375 180.691406 238.511719 190.914062 237.089844 Z M 191.546875 256.972656 C 191.3125 254.976562 191.097656 252.984375 190.894531 251 C 189.816406 251.195312 188.761719 251.429688 187.730469 251.726562 C 187.730469 251.757812 187.738281 251.765625 187.738281 251.796875 C 187.789062 253.648438 187.914062 255.539062 188.078125 257.402344 C 189.234375 257.21875 190.402344 257.074219 191.546875 256.972656 Z M 192.460938 241.875 C 192.113281 241.046875 191.804688 240.21875 191.527344 239.390625 C 181.234375 240.730469 171.558594 244.628906 162.390625 249.402344 C 162.585938 250.457031 162.789062 251.5 163.015625 252.484375 C 172.070312 246.867188 182.066406 244.085938 192.460938 241.875 Z M 192.796875 141.421875 C 192.550781 141.453125 192.316406 141.453125 192.089844 141.402344 C 191.898438 141.402344 191.710938 141.402344 191.496094 141.371094 C 183.804688 140.0625 177.046875 135.847656 169.375 134.449219 C 169.078125 134.398438 168.824219 134.285156 168.597656 134.152344 C 168.054688 134.191406 167.523438 134.234375 167 134.316406 C 174.015625 140.882812 182.8125 145.710938 189.921875 152.265625 C 191.097656 148.707031 191.835938 145.035156 192.796875 141.421875 Z M 195.277344 248.035156 C 195.050781 246.589844 194.601562 245.21875 193.679688 244.066406 C 183.109375 246.292969 172.898438 249.054688 163.734375 254.867188 C 163.957031 255.171875 164.132812 255.511719 164.234375 255.878906 C 164.695312 256.769531 165.371094 257.964844 165.84375 258.558594 C 165.957031 258.703125 166.058594 258.84375 166.128906 259.007812 C 175.203125 253.667969 184.65625 248.78125 195.277344 248.035156 Z M 194.589844 310.710938 L 194.589844 310.691406 C 192.183594 300.28125 186.304688 291.238281 183.539062 281 C 181.902344 274.964844 180.816406 268.519531 180.191406 262.136719 C 178.644531 262.761719 177.117188 263.488281 175.683594 264.335938 C 177.84375 281.203125 186.992188 296.066406 191.578125 312.472656 C 192.65625 311.992188 193.648438 311.378906 194.589844 310.710938 Z M 196.023438 256.277344 C 195.851562 254.558594 195.675781 252.839844 195.53125 251.082031 C 195.53125 250.875 195.53125 250.703125 195.554688 250.539062 C 195.554688 250.507812 195.554688 250.488281 195.53125 250.476562 C 195.53125 250.457031 195.53125 250.425781 195.53125 250.40625 C 194.765625 250.457031 194.007812 250.539062 193.25 250.632812 C 193.453125 252.617188 193.679688 254.601562 193.902344 256.59375 C 194.601562 256.429688 195.308594 256.316406 196.023438 256.277344 Z M 196.636719 157.238281 C 198.265625 150.914062 198.472656 143.867188 196.535156 137.546875 C 196.527344 137.585938 196.496094 137.617188 196.453125 137.648438 C 194.445312 142.9375 193.820312 148.613281 191.898438 153.941406 C 191.867188 154.015625 191.835938 154.054688 191.804688 154.105469 C 191.949219 154.25 192.089844 154.394531 192.234375 154.535156 C 192.367188 154.679688 192.480469 154.824219 192.574219 154.964844 C 193.851562 155.804688 195.226562 156.550781 196.636719 157.238281 Z M 203 199.777344 C 199.210938 197.136719 197.324219 190.425781 195.277344 186.5625 C 193.207031 185.425781 191.210938 184.105469 189.273438 182.734375 C 189.214844 183.6875 188.835938 184.414062 188.558594 184.851562 C 188.066406 185.476562 187.738281 185.734375 187.617188 185.652344 C 187.472656 185.558594 187.535156 185.140625 187.738281 184.484375 C 187.851562 183.820312 188.046875 182.878906 187.59375 181.949219 C 187.453125 181.609375 187.195312 181.292969 186.898438 180.957031 C 186.078125 180.351562 185.28125 179.726562 184.480469 179.105469 C 183.488281 178.5 182.351562 177.886719 181.152344 177.191406 C 180.878906 178.285156 180.609375 179.410156 180.222656 180.527344 C 178.46875 185.894531 176.257812 190.34375 174.9375 193.660156 C 174.261719 195.265625 173.6875 196.617188 173.320312 197.566406 C 172.898438 198.519531 172.601562 199.007812 172.417969 198.957031 C 172.222656 198.917969 172.191406 198.332031 172.292969 197.3125 C 172.355469 196.289062 172.644531 194.855469 173.125 193.035156 C 174.035156 189.476562 175.980469 184.820312 177.652344 179.707031 C 178.222656 178.050781 178.59375 176.425781 178.992188 174.890625 L 179.023438 174.808594 C 178.789062 174.636719 178.5625 174.441406 178.335938 174.277344 C 178.328125 174.265625 178.304688 174.246094 178.285156 174.234375 C 178.183594 174.183594 178.050781 174.132812 177.9375 174.070312 C 172.664062 171.074219 167.398438 168.640625 163.539062 163.804688 C 163.464844 163.710938 163.40625 163.597656 163.324219 163.496094 C 158.949219 168.917969 154.421875 174.554688 149.519531 179.441406 C 152.792969 177.425781 155.640625 175.351562 157.832031 173.867188 C 160.375 172.089844 162.042969 171.117188 162.277344 171.402344 C 162.523438 171.6875 161.285156 173.183594 159.050781 175.332031 C 156.777344 177.457031 153.5 180.320312 149.273438 182.734375 C 146.558594 184.257812 143.773438 185.242188 141.285156 185.8125 C 138.949219 186.917969 136.417969 187.378906 133.972656 186.375 C 133.878906 186.335938 133.796875 186.296875 133.695312 186.242188 C 133.480469 186.234375 133.285156 186.191406 133.109375 186.152344 C 133.324219 187.839844 133.777344 189.914062 134.433594 192.175781 C 135.28125 194.90625 136.222656 197.332031 137.023438 199.019531 C 137.421875 199.867188 137.75 200.554688 137.964844 201.035156 C 138.222656 201.546875 138.304688 201.902344 138.160156 202.027344 C 138.015625 202.160156 137.699219 202.046875 137.195312 201.761719 C 136.726562 201.453125 136.050781 200.828125 135.414062 200.03125 C 134.105469 198.4375 132.753906 195.910156 131.863281 192.933594 C 131.542969 191.847656 131.328125 190.816406 131.175781 189.792969 C 130.222656 190.335938 129.394531 191.050781 129.066406 191.953125 C 129.269531 193.722656 129.976562 195.878906 131.042969 198.066406 C 132.546875 201.207031 134.339844 203.910156 135.660156 205.8125 C 136.992188 207.734375 137.933594 208.757812 137.761719 209.074219 C 137.585938 209.421875 136.019531 208.789062 134.226562 207.058594 C 132.414062 205.351562 130.265625 202.679688 128.59375 199.234375 C 128.441406 198.894531 128.285156 198.546875 128.144531 198.210938 C 125.5625 202.230469 122.152344 205.71875 120.246094 210.15625 C 120.054688 210.578125 119.816406 210.863281 119.539062 211.066406 C 119.457031 211.191406 119.367188 211.304688 119.273438 211.4375 C 117.941406 212.917969 116.804688 214.628906 115.832031 216.46875 C 120.636719 216.265625 125.285156 215.527344 129.558594 213.0625 C 129.863281 212.890625 130.160156 212.796875 130.46875 212.746094 C 130.847656 212.601562 131.296875 212.539062 131.800781 212.613281 C 137.1875 213.5625 142.367188 215.097656 147.519531 216.804688 C 146.21875 215.863281 145.042969 214.851562 144.046875 213.777344 C 142.625 212.265625 141.632812 210.636719 140.996094 209.214844 C 139.726562 206.242188 139.859375 204.359375 140.15625 204.277344 C 140.554688 204.152344 141.171875 206.003906 142.667969 208.304688 C 143.445312 209.472656 144.457031 210.78125 145.808594 212.03125 C 147.160156 213.289062 148.832031 214.515625 150.664062 215.703125 C 153.246094 217.347656 155.753906 218.800781 157.863281 220.191406 C 158.777344 217.070312 160.332031 214.230469 162.984375 212.007812 C 170.183594 205.972656 177.25 208.960938 182.988281 214.761719 C 181.953125 211.640625 181.777344 208.417969 181.890625 205.554688 C 182.230469 202.34375 183.027344 199.582031 184 197.382812 C 184.511719 196.289062 184.972656 195.316406 185.402344 194.46875 C 185.90625 193.691406 186.355469 193.035156 186.714844 192.503906 C 187.484375 191.441406 187.984375 190.898438 188.136719 190.96875 C 188.300781 191.050781 188.128906 191.765625 187.648438 192.984375 C 187.421875 193.609375 187.113281 194.34375 186.734375 195.171875 C 186.457031 196.03125 186.128906 196.992188 185.773438 198.066406 C 185.085938 200.183594 184.542969 202.8125 184.371094 205.699219 C 184.421875 208.59375 184.65625 211.804688 185.9375 214.945312 C 186.078125 215.394531 186.222656 215.824219 186.367188 216.265625 C 186.734375 214.882812 187.15625 213.605469 187.566406 212.429688 C 188.394531 210.128906 189.234375 208.164062 189.859375 206.515625 C 191.140625 203.222656 191.640625 201.175781 192.007812 201.226562 C 192.285156 201.25 192.347656 203.480469 191.464844 207.007812 C 191.058594 208.789062 190.410156 210.84375 189.746094 213.125 C 189.304688 214.679688 188.875 216.355469 188.578125 218.085938 C 190.515625 216.070312 192.550781 214.1875 194.507812 212.121094 C 197.980469 208.480469 200.316406 204.011719 203 199.777344 Z M 199.976562 306.425781 C 199.96875 306.386719 199.925781 306.367188 199.894531 306.3125 C 193.054688 292.320312 187.730469 276.109375 185.945312 260.285156 C 184.769531 260.554688 183.621094 260.902344 182.464844 261.289062 C 183.152344 269.503906 184.605469 277.980469 187.566406 285.316406 C 190.769531 293.253906 194.601562 300.820312 196.648438 309.148438 C 197.753906 308.246094 198.839844 307.328125 199.976562 306.425781 Z M 198.933594 126.234375 C 199.976562 125.445312 200.457031 124.464844 199.863281 123.257812 C 199.527344 122.601562 199.179688 121.949219 198.839844 121.285156 C 197.960938 121.507812 197.046875 121.722656 196.15625 122 C 196.1875 122.132812 196.238281 122.234375 196.238281 122.378906 C 196.269531 123.484375 197.078125 127.605469 198.933594 126.234375 Z M 202.148438 304.851562 C 202.679688 304.492188 203.304688 304.308594 203.992188 304.226562 C 196.964844 290.410156 193.792969 274.769531 191.835938 259.335938 C 190.667969 259.4375 189.488281 259.582031 188.300781 259.785156 C 190.011719 275.28125 195.277344 291.402344 201.933594 305.003906 C 202.003906 304.964844 202.078125 304.894531 202.148438 304.851562 Z M 207.636719 149.125 C 203.5625 145.863281 202.136719 140.390625 201.71875 135.253906 C 201.132812 135.398438 200.511719 135.398438 199.886719 135.253906 C 200.203125 139.152344 201.238281 143.019531 201.308594 146.914062 C 201.339844 148.929688 201 150.78125 200.550781 152.625 C 200.550781 152.625 200.570312 152.625 200.570312 152.632812 C 202.539062 150.863281 204.84375 149.566406 207.636719 149.125 Z M 206.726562 125.773438 C 206.265625 123.535156 205.609375 121.34375 205.242188 119.09375 C 203.941406 119.8125 202.589844 120.292969 201.175781 120.691406 C 201.863281 121.980469 202.679688 123.226562 202.539062 124.78125 C 202.363281 126.460938 200.746094 128.503906 199.035156 128.800781 C 196.925781 129.191406 195.53125 127.890625 194.714844 126.171875 C 194.570312 127.226562 194.558594 128.21875 194.742188 129.078125 C 196.496094 130.417969 198.265625 131.714844 200.140625 132.84375 C 200.910156 133.066406 201.648438 132.863281 202.332031 132.414062 C 202.445312 132.257812 202.597656 132.144531 202.804688 132.0625 C 204.585938 130.5625 205.988281 127.480469 206.726562 125.773438 Z M 206.921875 114.238281 C 206.828125 113.917969 206.726562 113.613281 206.605469 113.324219 C 203.789062 114.777344 200.808594 116.148438 197.703125 116.773438 C 197.488281 117.507812 197.152344 118.390625 196.761719 119.359375 C 199.753906 118.644531 202.792969 118.246094 205.28125 116.25 C 205.4375 116.140625 205.589844 116.058594 205.753906 116.007812 C 206.101562 115.402344 206.5 114.808594 206.921875 114.238281 Z M 206.613281 304.308594 C 207.636719 304.453125 208.691406 304.6875 209.6875 304.921875 C 207.226562 297.527344 204.238281 290.316406 201.648438 282.902344 C 198.757812 274.679688 197.242188 266.894531 196.28125 258.648438 C 195.582031 258.679688 194.878906 258.8125 194.199219 258.976562 C 196.136719 274.433594 199.320312 290.203125 206.5 303.910156 C 206.574219 304.054688 206.605469 304.175781 206.613281 304.308594 Z M 209.492188 185.792969 C 214.582031 179.839844 210.054688 169.613281 204.054688 166.195312 C 199.3125 163.484375 194.046875 161.847656 189.53125 158.710938 C 189.183594 158.453125 188.925781 158.148438 188.753906 157.839844 C 180.589844 149.300781 169.640625 143.886719 161.5 135.542969 C 160.136719 137.78125 158.007812 139.4375 155.46875 140.144531 C 155.804688 140.5625 156.132812 140.972656 156.460938 141.402344 C 157.351562 141.472656 158.253906 141.957031 158.664062 143.019531 C 160.457031 147.621094 162.226562 153.054688 164.929688 157.574219 C 165.257812 157.878906 165.515625 158.257812 165.667969 158.6875 C 166.355469 159.730469 167.082031 160.722656 167.878906 161.59375 C 170.902344 164.886719 174.742188 166.851562 178.574219 168.949219 C 178.480469 168.753906 178.386719 168.550781 178.304688 168.355469 C 178.0625 167.875 178 167.382812 177.886719 166.964844 C 177.683594 166.082031 177.761719 165.480469 177.792969 165 C 177.84375 164.539062 177.96875 164.261719 178.140625 164.222656 C 178.328125 164.171875 178.5625 164.367188 178.820312 164.765625 C 179.074219 165.132812 179.332031 165.796875 179.710938 166.371094 C 179.894531 166.65625 180.039062 167.023438 180.292969 167.332031 C 180.519531 167.648438 180.753906 167.988281 181.039062 168.242188 C 181.613281 168.804688 182.257812 169.140625 183.261719 169.328125 C 184.257812 169.519531 185.433594 169.570312 186.570312 169.835938 C 187.730469 170.125 188.761719 170.6875 189.4375 171.339844 C 190.09375 172.015625 190.464844 172.652344 190.574219 173.132812 C 190.71875 173.613281 190.699219 173.917969 190.546875 173.992188 C 190.1875 174.234375 189.46875 173.46875 188.300781 172.875 C 187.707031 172.597656 187.023438 172.394531 186.128906 172.28125 C 185.320312 172.199219 184.339844 172.199219 183.171875 172.027344 C 190.6875 178.03125 199.855469 185.988281 209.492188 185.792969 Z M 212.820312 316.183594 C 212.183594 313.300781 211.417969 310.457031 210.535156 307.664062 C 207.414062 307.070312 203.878906 306.222656 201.371094 308.359375 C 199.660156 309.8125 198.011719 311.316406 196.238281 312.6875 C 193.648438 314.679688 190.84375 315.714844 187.699219 316.011719 C 188.414062 317.789062 189.050781 319.609375 189.613281 321.472656 C 189.785156 322.085938 189.980469 322.71875 190.15625 323.394531 C 197.816406 320.777344 204.667969 316.828125 212.820312 316.183594 Z M 213.414062 318.957031 C 213.382812 318.824219 213.351562 318.679688 213.3125 318.558594 C 205.25 319.058594 198.390625 323.078125 190.871094 325.675781 C 191.324219 326.976562 191.855469 328.234375 192.574219 329.277344 C 197.128906 331.925781 199.996094 331.566406 201.164062 328.234375 C 202.300781 325.871094 203.398438 323.773438 205.179688 321.832031 C 207.414062 319.367188 212.214844 321.011719 213.414062 318.957031 Z M 211.796875 148.726562 C 213.414062 148.65625 215.03125 148.644531 216.640625 148.613281 C 212.019531 145.832031 207.996094 142.332031 204.472656 138.128906 C 205.160156 142.191406 206.746094 146.40625 210.453125 148.144531 C 210.875 148.359375 211.316406 148.550781 211.796875 148.726562 Z M 214.324219 132.945312 C 215.1875 130.847656 215.359375 128.566406 215.351562 126.316406 C 213.300781 125.988281 211.222656 125.804688 209.09375 125.660156 C 209.09375 125.773438 209.082031 125.867188 209.0625 125.957031 C 209.082031 126.171875 209.0625 126.378906 208.96875 126.582031 C 208.3125 128.136719 207.289062 130.242188 205.949219 132.011719 C 208.753906 132.117188 211.558594 132.414062 214.324219 132.945312 Z M 216.128906 154.128906 C 215.800781 153.574219 215.699219 152.921875 215.839844 152.285156 C 214.386719 152.113281 212.933594 151.773438 211.621094 151.292969 C 207.636719 151.660156 203.941406 152.683594 200.835938 155.867188 C 203.816406 154.527344 207.226562 152.765625 209.707031 154.332031 C 212.472656 156.070312 213.414062 156.378906 216.128906 154.128906 Z M 221.414062 137.25 C 220.277344 136.902344 219.25 136.636719 218.453125 136.410156 C 213.863281 135.164062 209.308594 134.476562 204.566406 134.398438 C 207.351562 138.148438 210.535156 141.394531 214.160156 144.09375 C 216.976562 142.242188 219.539062 140.054688 221.414062 137.25 Z M 228.109375 331.3125 C 225.101562 329.207031 221.75 327.628906 218.421875 326.042969 C 218.207031 326.042969 218.003906 326.023438 217.796875 325.910156 C 216.210938 325.113281 214.703125 324.195312 213.445312 322.945312 C 203.757812 320.460938 205.222656 329.714844 201.175781 333.492188 C 204.667969 333.828125 208.140625 334.085938 211.476562 334.402344 C 217.519531 334.972656 222.929688 334.800781 228.109375 331.3125 Z M 237.941406 119.546875 C 237.421875 110.246094 232.21875 102.289062 221.585938 102.433594 C 213.578125 102.523438 207.554688 106.125 203.070312 112.394531 C 204.105469 111.925781 205.128906 111.394531 206.132812 110.871094 C 206.347656 110.757812 206.574219 110.71875 206.757812 110.738281 C 207.238281 110.574219 207.8125 110.65625 208.171875 111.199219 C 208.691406 111.984375 209.039062 112.867188 209.285156 113.785156 C 209.308594 113.808594 209.285156 113.835938 209.308594 113.859375 C 216.457031 113.726562 230.640625 114.441406 237.941406 119.546875 Z M 222.582031 135.226562 C 223.613281 133.097656 224.097656 130.753906 224.300781 128.402344 C 222.160156 127.707031 219.96875 127.144531 217.746094 126.714844 C 217.726562 129.015625 217.480469 131.296875 216.679688 133.457031 C 218.679688 133.9375 220.65625 134.507812 222.582031 135.226562 Z M 229.246094 140.535156 C 227.566406 139.519531 225.601562 138.710938 223.746094 138.039062 C 221.84375 141.085938 219.191406 143.519531 216.242188 145.566406 C 217.808594 146.597656 219.445312 147.558594 221.15625 148.398438 C 221.761719 148.359375 222.363281 148.296875 222.960938 148.214844 C 225.058594 145.574219 227.476562 143.296875 229.246094 140.535156 Z M 216.628906 188.882812 C 221.25 183.542969 228.941406 177.34375 226.371094 169.398438 C 224.660156 164.140625 222.039062 159.363281 217.910156 155.703125 C 216.003906 157.175781 214.4375 159.167969 211.652344 158.464844 C 209.265625 157.878906 208.058594 156.089844 205.527344 156.714844 C 205.28125 156.835938 204.996094 156.980469 204.679688 157.144531 C 204.074219 157.441406 203.304688 157.746094 202.570312 158.199219 C 202.363281 158.320312 202.136719 158.464844 201.933594 158.605469 C 203.480469 158.945312 205.191406 159.21875 207.0625 159.476562 C 209.121094 159.773438 211.203125 160.160156 213.015625 160.910156 C 214.835938 161.632812 216.300781 162.699219 217.335938 163.722656 C 219.40625 165.847656 219.96875 167.476562 219.734375 167.679688 C 219.425781 167.957031 218.175781 166.625 216.117188 165.195312 C 215.0625 164.457031 213.753906 163.742188 212.164062 163.242188 C 210.578125 162.730469 208.722656 162.441406 206.664062 162.144531 C 206.613281 162.144531 206.574219 162.125 206.523438 162.125 C 209.574219 163.964844 212.246094 166.277344 213.863281 169.726562 C 216.835938 176.054688 217.695312 183.6875 212.839844 189.28125 C 212.59375 189.539062 212.359375 189.710938 212.113281 189.84375 C 211.734375 190.242188 211.203125 190.53125 210.535156 190.570312 C 207.289062 190.847656 204.113281 190.273438 201.0625 189.199219 C 202.425781 192.136719 203.972656 195.542969 206.265625 197.167969 C 208.386719 197.394531 211.253906 197.792969 213.210938 196.726562 C 215.238281 195.59375 215.730469 193.351562 215.945312 191.183594 C 215.953125 190.988281 215.984375 190.828125 216.035156 190.671875 C 215.984375 190.058594 216.148438 189.433594 216.628906 188.882812 Z M 228.910156 339.207031 C 230.433594 337.675781 231.070312 335.800781 230.949219 333.613281 C 230.785156 333.460938 230.609375 333.316406 230.445312 333.152344 C 227.617188 333.953125 223.53125 336.539062 221.308594 336.792969 C 217.039062 337.277344 212.953125 337.050781 208.714844 336.425781 C 199.722656 335.148438 190.441406 335.230469 181.777344 332.386719 C 181.5625 333.460938 181.5 334.523438 181.613281 335.597656 C 187.820312 339.609375 196.558594 339.015625 203.644531 339.003906 C 211.960938 338.984375 220.417969 340.34375 228.683594 339.207031 C 228.765625 339.207031 228.828125 339.207031 228.910156 339.207031 Z M 231.101562 136.59375 C 231.5625 135.019531 231.777344 133.34375 232.011719 131.664062 C 230.242188 130.722656 228.429688 129.925781 226.605469 129.222656 C 226.347656 131.613281 225.828125 133.945312 224.800781 136.125 C 225.101562 136.246094 225.40625 136.378906 225.714844 136.503906 C 227.21875 137.1875 228.828125 137.84375 230.324219 138.609375 C 230.621094 137.976562 230.894531 137.320312 231.101562 136.59375 Z M 233.425781 144.746094 C 233.007812 143.695312 232.21875 142.734375 231.191406 141.882812 C 229.839844 143.980469 228.171875 145.71875 226.542969 147.589844 C 226.71875 147.640625 226.890625 147.703125 227.078125 147.765625 C 227.9375 148.144531 228.746094 148.277344 229.625 148.277344 C 230.351562 147.734375 231.847656 146.394531 233.425781 144.746094 Z M 232.441406 129.167969 C 232.699219 128.023438 233.058594 126.890625 233.609375 125.84375 C 225.828125 121.425781 216.773438 118.929688 207.957031 120.660156 C 208.171875 121.519531 208.375 122.367188 208.601562 123.226562 C 217.070312 123.707031 224.976562 125.375 232.441406 129.167969 Z M 235.167969 142.8125 C 237.5625 139.972656 239.46875 136.851562 238.023438 135.429688 C 237.910156 135.316406 237.820312 135.195312 237.738281 135.082031 C 236.878906 134.285156 235.710938 133.628906 234.625 133.085938 C 234.5625 133.054688 234.492188 133.054688 234.410156 133.003906 C 234.296875 132.945312 234.195312 132.882812 234.082031 132.8125 C 233.710938 135.226562 233.40625 137.699219 232.351562 139.878906 C 233.488281 140.675781 234.460938 141.617188 235.167969 142.8125 Z M 238.875 130.929688 C 238.9375 130.398438 238.925781 129.84375 238.925781 129.28125 C 237.871094 128.515625 236.796875 127.777344 235.679688 127.082031 C 235.136719 128.085938 234.777344 129.191406 234.523438 130.324219 C 234.890625 130.53125 235.257812 130.722656 235.628906 130.929688 C 235.660156 130.949219 235.660156 130.980469 235.679688 130.980469 C 236.425781 131.390625 237.183594 131.820312 237.882812 132.300781 C 237.964844 132.15625 238.054688 132.035156 238.15625 131.902344 C 238.414062 131.605469 238.648438 131.265625 238.875 130.929688 Z M 240.042969 127.15625 C 240.011719 126.917969 239.980469 126.695312 239.917969 126.46875 C 239.4375 125.476562 238.84375 124.527344 238.1875 123.625 C 238.097656 123.511719 238.042969 123.390625 237.984375 123.257812 C 234.828125 120.097656 228.910156 118.339844 225.457031 117.5 C 219.519531 116.027344 214.40625 116.035156 208.4375 116.261719 C 208.148438 116.710938 207.832031 117.140625 207.578125 117.613281 C 207.546875 117.671875 207.484375 117.703125 207.441406 117.753906 C 207.464844 117.9375 207.496094 118.125 207.523438 118.308594 C 219.015625 116.109375 230.722656 120.457031 240.042969 127.15625 Z M 245.246094 127.238281 C 245.417969 127.808594 245.429688 128.339844 245.253906 128.769531 C 245.273438 129.167969 245.246094 129.589844 245 130.019531 C 244.25 131.296875 243.515625 132.554688 242.683594 133.773438 C 245.765625 140.03125 236.335938 149.25 232.003906 152.449219 C 231.816406 152.570312 231.632812 152.664062 231.460938 152.746094 C 231.132812 152.910156 230.761719 153 230.394531 153.03125 C 228.734375 153.144531 227.1875 152.847656 225.652344 152.304688 C 225.324219 152.429688 225.007812 152.59375 224.691406 152.734375 C 224.382812 153.164062 223.972656 153.503906 223.441406 153.617188 C 223.390625 153.625 223.121094 153.738281 223.042969 153.757812 C 223.0625 153.738281 223.09375 153.707031 223.132812 153.6875 C 223.09375 153.707031 223.0625 153.726562 223.011719 153.769531 C 222.980469 153.769531 222.929688 153.800781 222.898438 153.820312 C 227.660156 158.6875 232.289062 166.371094 231.746094 172.730469 C 231.070312 180.660156 225.683594 185.84375 220.6875 191.511719 C 220.335938 194.90625 219.394531 198.46875 216.34375 200.429688 C 213.648438 202.160156 210.371094 202.28125 207.238281 202.058594 C 204.851562 205.839844 202.804688 210.046875 199.863281 213.378906 C 196.667969 216.992188 192.828125 219.964844 189.859375 223.773438 C 191.9375 227.15625 193.578125 230.554688 194.683594 233.285156 C 195.039062 233.714844 195.277344 234.296875 195.339844 234.898438 C 195.511719 236.453125 195.992188 238.050781 196.617188 239.480469 C 196.75 239.789062 196.824219 240.125 196.875 240.445312 C 199.464844 243.234375 200.070312 246.785156 200.324219 250.476562 C 200.347656 250.660156 200.347656 250.824219 200.324219 250.988281 C 200.324219 251.019531 200.324219 251.050781 200.324219 251.082031 C 201.371094 263.765625 203.613281 274.820312 208.171875 286.769531 C 211.9375 296.660156 215.832031 306.457031 217.878906 316.878906 C 218.167969 317.167969 218.390625 317.515625 218.453125 317.933594 C 218.605469 319.058594 218.933594 320.277344 219.332031 321.175781 C 224.882812 323.886719 230.578125 326.414062 235.023438 330.84375 C 235.660156 331.476562 235.824219 332.210938 235.679688 332.878906 C 235.6875 332.980469 235.710938 333.039062 235.730469 333.132812 C 236.109375 336.949219 234.625 340.773438 231.632812 343.21875 C 231.152344 343.597656 230.640625 343.78125 230.136719 343.789062 C 230.078125 343.800781 230.027344 343.820312 229.964844 343.84375 C 220.019531 345.203125 209.511719 343.996094 199.464844 343.78125 C 192.335938 343.617188 184.050781 343.554688 178.132812 339.003906 C 178.050781 338.933594 177.988281 338.859375 177.90625 338.777344 C 177.476562 338.503906 177.148438 338.054688 177.027344 337.367188 C 176.246094 332.703125 177.710938 328.214844 179.933594 324.140625 C 178.898438 321.359375 178.101562 318.515625 178.140625 315.53125 C 178.101562 315.429688 178.0625 315.324219 178.03125 315.203125 C 176.6875 309.742188 176.636719 304.6875 173.554688 299.65625 C 172.375 297.722656 171.179688 295.808594 170.011719 293.886719 C 166.714844 301.671875 161.203125 308.453125 155.898438 314.988281 C 157.035156 315.695312 158.152344 316.460938 159.238281 317.308594 C 165.125 317.402344 171.832031 323.476562 167.429688 329.289062 C 167.285156 329.460938 167.144531 329.605469 166.980469 329.746094 C 159.378906 340.066406 141.148438 337.59375 130.417969 335.292969 C 114.605469 331.894531 100.050781 326.957031 85.335938 320.460938 C 83.253906 325.371094 80.890625 331.710938 75.941406 333.890625 C 71.039062 336.058594 65.609375 335.546875 61.992188 331.332031 C 54.222656 322.269531 60.703125 305.148438 67.535156 297.570312 C 68.683594 288.425781 73.085938 274.117188 83.777344 273.636719 C 83.820312 273.636719 83.828125 273.636719 83.859375 273.636719 C 84.199219 273.582031 84.566406 273.605469 84.945312 273.714844 C 91.027344 275.558594 94.726562 280.375 99.425781 284.304688 C 107.925781 291.433594 116.183594 287.832031 125.808594 289.140625 C 126.535156 280.007812 128.183594 270.953125 129.585938 261.8125 L 129.585938 261.800781 C 121.671875 260.125 114.101562 257.402344 110.886719 249.003906 C 105.613281 235.238281 105.726562 219.425781 115.863281 208.050781 C 115.925781 207.988281 115.996094 207.9375 116.039062 207.886719 C 116.070312 207.847656 116.070312 207.773438 116.089844 207.734375 C 118.117188 203.019531 121.835938 199.378906 124.457031 195.007812 C 124.457031 195.007812 124.457031 195.007812 124.457031 195 C 123.15625 191.308594 125.226562 188.003906 128.214844 186.007812 C 128.277344 185.027344 128.503906 184.074219 128.953125 183.207031 C 122.410156 176.832031 125.953125 166.1875 129.609375 157.777344 C 129.617188 157.636719 129.640625 157.511719 129.667969 157.378906 C 126.566406 148.910156 123.269531 140.972656 125.5625 132.636719 C 124.292969 132.21875 123.300781 131.277344 122.695312 130.050781 C 120.421875 129.84375 118.425781 128.710938 117.574219 126.296875 C 116.828125 124.167969 117.390625 121.90625 118.660156 120.148438 C 117.675781 118.582031 117.207031 117.019531 117.175781 115.496094 L 116.171875 115.496094 C 115.015625 115.496094 114.296875 114.871094 113.960938 114.09375 C 94.828125 95.152344 79.40625 71.429688 63.519531 49.820312 C 63.121094 49.277344 63.007812 48.734375 63.101562 48.234375 C 63.070312 47.914062 63.121094 47.566406 63.273438 47.179688 C 65.824219 40.972656 71.242188 31.539062 78.554688 30.324219 C 78.839844 30.28125 79.109375 30.28125 79.382812 30.324219 C 80.273438 30.117188 81.257812 30.394531 81.863281 31.429688 C 89.523438 44.828125 99.886719 56.128906 110.089844 67.605469 C 119.457031 78.171875 127.015625 89.730469 135.855469 100.621094 C 136.195312 101.03125 136.355469 101.460938 136.398438 101.890625 C 136.511719 102.085938 136.613281 102.269531 136.675781 102.484375 C 136.734375 102.6875 136.765625 102.914062 136.796875 103.117188 C 146.097656 104.417969 154.851562 111.371094 160.230469 118.480469 C 160.730469 119.15625 160.773438 119.832031 160.566406 120.382812 C 160.691406 122.195312 160.425781 123.914062 159.78125 125.578125 C 160.792969 127.257812 161.910156 128.800781 163.128906 130.253906 C 165.257812 129.710938 167.410156 129.25 169.621094 129.34375 C 170.246094 129.363281 170.738281 129.597656 171.128906 129.9375 C 178.140625 131.328125 184.453125 134.960938 191.4375 136.453125 C 191.855469 135.871094 192.265625 135.277344 192.714844 134.703125 C 192.523438 134.570312 192.347656 134.425781 192.171875 134.234375 C 187.554688 128.800781 191.425781 121.109375 193.144531 115.257812 C 193.175781 115.167969 193.207031 115.066406 193.257812 114.972656 C 193.351562 114.511719 193.546875 114.0625 193.882812 113.675781 C 195.082031 112.222656 196.679688 111.15625 198.472656 110.542969 C 204.554688 101.644531 214.917969 95.242188 226.113281 98.230469 C 232.1875 99.84375 236.285156 102.75 238.875 106.75 C 241.457031 110.738281 242.519531 115.851562 242.519531 121.886719 C 244.117188 123.542969 244.660156 125.335938 245.246094 127.238281 Z M 152.171875 133.539062 C 152.160156 133.539062 152.140625 133.382812 152.128906 133.34375 C 152.109375 133.179688 152.058594 133.035156 152.007812 132.894531 C 151.800781 132.371094 151.484375 132.09375 150.765625 131.839844 C 150.058594 131.613281 149.085938 131.53125 148.042969 131.605469 C 144.386719 131.859375 140.894531 132.984375 138.46875 133.742188 C 135.988281 134.519531 134.605469 135.164062 134.289062 134.878906 C 133.59375 134.109375 139.0625 129.222656 147.867188 128.371094 C 149.027344 128.3125 150.203125 128.390625 151.421875 128.761719 C 151.371094 128.648438 151.320312 128.535156 151.289062 128.402344 C 151.175781 128.230469 151.0625 128.035156 150.960938 127.859375 L 150.847656 127.667969 C 150.828125 127.65625 150.738281 127.59375 150.738281 127.59375 C 149.855469 126.683594 148.585938 126.246094 146.792969 126.488281 C 143.566406 126.980469 140.484375 128.597656 138.242188 129.539062 C 136 130.550781 134.460938 131.074219 134.226562 130.671875 C 134 130.296875 135.058594 129.128906 137.074219 127.574219 C 138.097656 126.808594 139.347656 125.949219 140.894531 125.148438 C 142.0625 124.535156 143.394531 123.953125 144.929688 123.585938 C 144.898438 123.535156 144.859375 123.503906 144.828125 123.472656 C 144.753906 123.441406 144.589844 123.371094 144.53125 123.359375 C 144.480469 123.339844 144.425781 123.328125 144.367188 123.308594 C 144.203125 123.296875 144.078125 123.277344 143.964844 123.296875 C 143.90625 123.277344 143.855469 123.277344 143.804688 123.257812 C 139.390625 124.761719 135.515625 127.453125 131.726562 130.101562 C 127.488281 137.832031 130.160156 145.269531 133.027344 152.777344 C 137.925781 155.527344 145.390625 156.695312 149.753906 152.878906 C 149.753906 151.980469 149.753906 151.210938 149.753906 150.640625 C 149.753906 150.484375 149.773438 150.332031 149.804688 150.1875 C 148.011719 148.953125 146.621094 147.234375 144.929688 145.882812 C 144.878906 146.148438 144.847656 146.425781 144.828125 146.710938 C 144.753906 148.042969 144.671875 149.585938 144.367188 150.667969 C 144.027344 151.691406 143.597656 152.316406 143.167969 152.304688 C 142.71875 152.285156 142.339844 151.632812 142.082031 150.589844 C 141.796875 149.605469 141.507812 148.296875 141.601562 146.457031 C 141.652344 145.996094 141.746094 145.523438 141.835938 145.09375 C 141.949219 144.582031 142.257812 144.15625 142.449219 143.726562 C 142.164062 143.582031 141.867188 143.632812 141.550781 143.734375 C 140.554688 144.074219 139.550781 145.371094 139.347656 146.425781 C 139.234375 146.996094 139.246094 147.601562 139.265625 148.101562 C 139.347656 149.136719 139.316406 149.789062 139.09375 149.839844 C 138.875 149.890625 138.519531 149.421875 138.046875 148.398438 C 137.820312 147.878906 137.585938 147.203125 137.535156 146.261719 C 137.566406 145.800781 137.597656 145.289062 137.863281 144.6875 C 137.964844 144.347656 138.078125 144.207031 138.191406 143.992188 L 138.355469 143.703125 C 138.363281 143.695312 138.46875 143.5625 138.46875 143.5625 C 138.496094 143.550781 138.527344 143.5 138.527344 143.5 L 138.589844 143.417969 L 138.734375 143.273438 C 140.289062 141.648438 142.289062 140.480469 144.847656 139.4375 C 145.164062 139.328125 145.554688 139.171875 145.839844 139.089844 L 146.324219 138.96875 C 146.433594 138.925781 146.382812 138.925781 146.640625 138.867188 L 146.925781 138.816406 C 147.675781 138.691406 148.320312 138.632812 148.953125 138.527344 C 149.570312 138.4375 150.152344 138.292969 150.519531 138.128906 C 150.625 138.070312 150.683594 138.039062 150.714844 138.007812 C 150.695312 137.988281 150.695312 137.957031 150.683594 137.90625 L 150.601562 137.648438 L 150.574219 137.578125 C 150.429688 137.363281 150.347656 137.1875 150.253906 136.984375 C 150.089844 136.871094 149.96875 136.738281 149.835938 136.585938 C 149.640625 136.503906 149.457031 136.410156 149.273438 136.300781 C 148.433594 135.960938 147.265625 135.960938 146.160156 136.074219 C 143.90625 136.339844 141.804688 137.046875 140.09375 137.667969 C 136.613281 138.949219 134.679688 140.113281 134.371094 139.796875 C 134.03125 139.46875 135.679688 137.496094 139.132812 135.59375 C 140.863281 134.652344 143.003906 133.640625 145.726562 133.117188 C 147.089844 132.914062 148.636719 132.75 150.378906 133.324219 C 150.808594 133.515625 151.25 133.722656 151.65625 133.96875 C 151.851562 134.109375 152.007812 134.285156 152.191406 134.449219 C 152.191406 134.261719 152.191406 134.078125 152.171875 133.855469 L 152.171875 133.539062 " fill-opacity="1" fill-rule="nonzero"/></svg>