<svg xmlns="http://www.w3.org/2000/svg" xmlns:xlink="http://www.w3.org/1999/xlink" width="150" zoomAndPan="magnify" viewBox="0 0 112.5 30.000001" height="40" preserveAspectRatio="xMidYMid meet" version="1.0"><defs><g/><clipPath id="id1"><path d="M 1.574219 10 L 17 10 L 17 20 L 1.574219 20 Z M 1.574219 10 " clip-rule="nonzero"/></clipPath><clipPath id="id2"><path d="M 95 9 L 110.445312 9 L 110.445312 19 L 95 19 Z M 95 9 " clip-rule="nonzero"/></clipPath></defs><g clip-path="url(#id1)"><g fill="#ff00ff" fill-opacity="1"><g transform="translate(0.58249, 19.273932)"><g><path d="M 14.351562 -2.566406 C 14.335938 -2.277344 14.1875 -2.023438 13.953125 -1.804688 C 13.714844 -1.585938 13.441406 -1.476562 13.132812 -1.476562 L 3.515625 -1.476562 C 3.316406 -1.511719 3.132812 -1.621094 2.988281 -1.785156 C 2.785156 -2.003906 2.714844 -2.257812 2.730469 -2.566406 L 3.132812 -6.265625 C 3.152344 -6.574219 3.296875 -6.832031 3.535156 -7.050781 C 3.769531 -7.265625 4.042969 -7.375 4.351562 -7.375 L 13.75 -7.375 C 14.0625 -7.375 14.296875 -7.265625 14.5 -7.050781 C 14.699219 -6.832031 14.773438 -6.574219 14.753906 -6.265625 L 16.230469 -6.265625 C 16.300781 -6.976562 16.101562 -7.578125 15.644531 -8.085938 C 15.191406 -8.597656 14.625 -8.832031 13.898438 -8.832031 L 4.480469 -8.832031 C 3.753906 -8.832031 3.152344 -8.597656 2.605469 -8.085938 C 2.039062 -7.558594 1.730469 -6.996094 1.65625 -6.300781 L 1.257812 -2.566406 C 1.183594 -1.859375 1.382812 -1.257812 1.839844 -0.746094 C 2.277344 -0.238281 2.859375 0 3.589844 0 L 13.003906 0 C 13.734375 0 14.335938 -0.238281 14.882812 -0.746094 C 15.445312 -1.273438 15.753906 -1.859375 15.828125 -2.566406 Z M 14.351562 -2.566406 "/></g></g></g></g><g fill="#ff00ff" fill-opacity="1"><g transform="translate(18.061854, 19.273932)"><g><path d="M 15.699219 -4.898438 C 15.992188 -5.320312 16.175781 -5.753906 16.230469 -6.265625 C 16.300781 -6.957031 16.101562 -7.558594 15.644531 -8.070312 C 15.207031 -8.578125 14.625 -8.832031 13.898438 -8.832031 L 1.914062 -8.832031 L 1 0 L 2.476562 0 L 2.859375 -3.679688 L 11.546875 -3.679688 C 12.347656 -3.679688 13.003906 -3.386719 13.53125 -2.824219 C 14.023438 -2.242188 14.242188 -1.546875 14.171875 -0.746094 L 14.097656 0 L 15.574219 0 L 15.644531 -0.746094 C 15.773438 -2.023438 15.410156 -3.097656 14.570312 -3.972656 C 15.027344 -4.1875 15.390625 -4.5 15.699219 -4.898438 Z M 14.335938 -5.484375 C 14.097656 -5.265625 13.824219 -5.15625 13.515625 -5.15625 L 3.003906 -5.15625 L 3.242188 -7.359375 L 13.75 -7.359375 C 14.0625 -7.359375 14.296875 -7.25 14.5 -7.03125 C 14.699219 -6.8125 14.773438 -6.558594 14.753906 -6.265625 C 14.71875 -5.957031 14.570312 -5.683594 14.335938 -5.484375 Z M 14.335938 -5.484375 "/></g></g></g><g fill="#ff00ff" fill-opacity="1"><g transform="translate(35.541218, 19.273932)"><g><path d="M 3.371094 -8.832031 L 1.914062 -8.832031 L 1 0 L 2.476562 0 Z M 3.371094 -8.832031 "/></g></g></g><g fill="#ff00ff" fill-opacity="1"><g transform="translate(39.929265, 19.273932)"><g><path d="M 14.351562 -2.566406 C 14.335938 -2.277344 14.1875 -2.023438 13.953125 -1.804688 C 13.714844 -1.585938 13.441406 -1.476562 13.132812 -1.476562 L 3.515625 -1.476562 C 3.316406 -1.511719 3.132812 -1.621094 2.988281 -1.785156 C 2.785156 -2.003906 2.714844 -2.257812 2.730469 -2.566406 L 3.132812 -6.265625 C 3.152344 -6.574219 3.296875 -6.832031 3.535156 -7.050781 C 3.769531 -7.265625 4.042969 -7.375 4.351562 -7.375 L 13.75 -7.375 C 14.0625 -7.375 14.296875 -7.265625 14.5 -7.050781 C 14.699219 -6.832031 14.773438 -6.574219 14.753906 -6.265625 L 16.230469 -6.265625 C 16.300781 -6.976562 16.101562 -7.578125 15.644531 -8.085938 C 15.191406 -8.597656 14.625 -8.832031 13.898438 -8.832031 L 4.480469 -8.832031 C 3.753906 -8.832031 3.152344 -8.597656 2.605469 -8.085938 C 2.039062 -7.558594 1.730469 -6.996094 1.65625 -6.300781 L 1.257812 -2.566406 C 1.183594 -1.859375 1.382812 -1.257812 1.839844 -0.746094 C 2.277344 -0.238281 2.859375 0 3.589844 0 L 13.003906 0 C 13.734375 0 14.335938 -0.238281 14.882812 -0.746094 C 15.445312 -1.273438 15.753906 -1.859375 15.828125 -2.566406 Z M 14.351562 -2.566406 "/></g></g></g><g fill="#ff00ff" fill-opacity="1"><g transform="translate(57.408629, 19.273932)"><g><path d="M 15.0625 -7.539062 C 14.296875 -8.398438 13.296875 -8.832031 12.074219 -8.832031 L 1.914062 -8.832031 L 1 0 L 11.164062 0 C 12.386719 0 13.460938 -0.4375 14.40625 -1.292969 C 15.355469 -2.167969 15.902344 -3.207031 16.027344 -4.40625 C 16.15625 -5.628906 15.828125 -6.667969 15.0625 -7.539062 Z M 13.480469 -2.332031 C 12.859375 -1.765625 12.128906 -1.476562 11.3125 -1.476562 L 2.621094 -1.476562 L 3.242188 -7.359375 L 11.929688 -7.359375 C 12.75 -7.359375 13.40625 -7.066406 13.914062 -6.503906 C 14.445312 -5.917969 14.644531 -5.226562 14.554688 -4.40625 C 14.460938 -3.605469 14.117188 -2.914062 13.480469 -2.332031 Z M 13.480469 -2.332031 "/></g></g></g><g fill="#ff00ff" fill-opacity="1"><g transform="translate(74.887992, 19.273932)"><g><path d="M 15.644531 -8.085938 C 15.207031 -8.597656 14.644531 -8.832031 13.914062 -8.832031 L 4.5 -8.832031 C 3.769531 -8.832031 3.152344 -8.597656 2.605469 -8.085938 C 2.039062 -7.558594 1.730469 -6.976562 1.65625 -6.265625 L 1 0 L 2.476562 0 L 2.859375 -3.679688 L 14.480469 -3.679688 L 14.097656 0 L 15.574219 0 L 16.230469 -6.265625 C 16.300781 -6.976562 16.101562 -7.558594 15.644531 -8.085938 Z M 14.625 -5.15625 L 3.003906 -5.15625 L 3.132812 -6.265625 C 3.152344 -6.574219 3.296875 -6.832031 3.535156 -7.050781 C 3.714844 -7.210938 3.933594 -7.320312 4.132812 -7.359375 L 13.75 -7.359375 C 14.0625 -7.359375 14.296875 -7.25 14.5 -7.03125 C 14.699219 -6.8125 14.773438 -6.558594 14.753906 -6.265625 Z M 14.625 -5.15625 "/></g></g></g><g fill="#ff00ff" fill-opacity="1"><g transform="translate(92.367356, 19.273932)"><g><path d="M 15.644531 -8.085938 C 15.191406 -8.597656 14.625 -8.832031 13.898438 -8.832031 L 4.480469 -8.832031 C 3.753906 -8.832031 3.152344 -8.597656 2.605469 -8.085938 C 2.039062 -7.558594 1.730469 -6.996094 1.65625 -6.300781 L 1.257812 -2.566406 C 1.183594 -1.859375 1.382812 -1.257812 1.839844 -0.746094 C 2.277344 -0.238281 2.859375 0 3.589844 0 L 13.003906 0 C 13.734375 0 14.335938 -0.238281 14.882812 -0.746094 C 15.445312 -1.273438 15.753906 -1.859375 15.828125 -2.566406 L 16.230469 -6.265625 C 16.300781 -6.976562 16.101562 -7.578125 15.644531 -8.085938 Z M 13.953125 -1.804688 C 13.714844 -1.585938 13.441406 -1.476562 13.132812 -1.476562 L 3.515625 -1.476562 C 3.316406 -1.511719 3.132812 -1.621094 2.988281 -1.785156 C 2.785156 -2.003906 2.714844 -2.257812 2.730469 -2.566406 L 3.132812 -6.265625 C 3.152344 -6.574219 3.296875 -6.832031 3.535156 -7.050781 C 3.769531 -7.265625 4.042969 -7.375 4.351562 -7.375 L 13.75 -7.375 C 14.0625 -7.375 14.296875 -7.265625 14.5 -7.050781 C 14.699219 -6.832031 14.773438 -6.574219 14.753906 -6.265625 L 14.351562 -2.566406 C 14.335938 -2.277344 14.1875 -2.023438 13.953125 -1.804688 Z M 13.953125 -1.804688 "/></g></g></g><g fill="#00ffff" fill-opacity="1"><g transform="translate(2.651431, 18.641393)"><g><path d="M 14.351562 -2.566406 C 14.335938 -2.277344 14.1875 -2.023438 13.953125 -1.804688 C 13.714844 -1.585938 13.441406 -1.476562 13.132812 -1.476562 L 3.515625 -1.476562 C 3.316406 -1.511719 3.132812 -1.621094 2.988281 -1.785156 C 2.785156 -2.003906 2.714844 -2.257812 2.730469 -2.566406 L 3.132812 -6.265625 C 3.152344 -6.574219 3.296875 -6.832031 3.535156 -7.050781 C 3.769531 -7.265625 4.042969 -7.375 4.351562 -7.375 L 13.75 -7.375 C 14.0625 -7.375 14.296875 -7.265625 14.5 -7.050781 C 14.699219 -6.832031 14.773438 -6.574219 14.753906 -6.265625 L 16.230469 -6.265625 C 16.300781 -6.976562 16.101562 -7.578125 15.644531 -8.085938 C 15.191406 -8.597656 14.625 -8.832031 13.898438 -8.832031 L 4.480469 -8.832031 C 3.753906 -8.832031 3.152344 -8.597656 2.605469 -8.085938 C 2.039062 -7.558594 1.730469 -6.996094 1.65625 -6.300781 L 1.257812 -2.566406 C 1.183594 -1.859375 1.382812 -1.257812 1.839844 -0.746094 C 2.277344 -0.238281 2.859375 0 3.589844 0 L 13.003906 0 C 13.734375 0 14.335938 -0.238281 14.882812 -0.746094 C 15.445312 -1.273438 15.753906 -1.859375 15.828125 -2.566406 Z M 14.351562 -2.566406 "/></g></g></g><g fill="#00ffff" fill-opacity="1"><g transform="translate(20.130795, 18.641393)"><g><path d="M 15.699219 -4.898438 C 15.992188 -5.320312 16.175781 -5.753906 16.230469 -6.265625 C 16.300781 -6.957031 16.101562 -7.558594 15.644531 -8.070312 C 15.207031 -8.578125 14.625 -8.832031 13.898438 -8.832031 L 1.914062 -8.832031 L 1 0 L 2.476562 0 L 2.859375 -3.679688 L 11.546875 -3.679688 C 12.347656 -3.679688 13.003906 -3.386719 13.53125 -2.824219 C 14.023438 -2.242188 14.242188 -1.546875 14.171875 -0.746094 L 14.097656 0 L 15.574219 0 L 15.644531 -0.746094 C 15.773438 -2.023438 15.410156 -3.097656 14.570312 -3.972656 C 15.027344 -4.1875 15.390625 -4.5 15.699219 -4.898438 Z M 14.335938 -5.484375 C 14.097656 -5.265625 13.824219 -5.15625 13.515625 -5.15625 L 3.003906 -5.15625 L 3.242188 -7.359375 L 13.75 -7.359375 C 14.0625 -7.359375 14.296875 -7.25 14.5 -7.03125 C 14.699219 -6.8125 14.773438 -6.558594 14.753906 -6.265625 C 14.71875 -5.957031 14.570312 -5.683594 14.335938 -5.484375 Z M 14.335938 -5.484375 "/></g></g></g><g fill="#00ffff" fill-opacity="1"><g transform="translate(37.610158, 18.641393)"><g><path d="M 3.371094 -8.832031 L 1.914062 -8.832031 L 1 0 L 2.476562 0 Z M 3.371094 -8.832031 "/></g></g></g><g fill="#00ffff" fill-opacity="1"><g transform="translate(41.998205, 18.641393)"><g><path d="M 14.351562 -2.566406 C 14.335938 -2.277344 14.1875 -2.023438 13.953125 -1.804688 C 13.714844 -1.585938 13.441406 -1.476562 13.132812 -1.476562 L 3.515625 -1.476562 C 3.316406 -1.511719 3.132812 -1.621094 2.988281 -1.785156 C 2.785156 -2.003906 2.714844 -2.257812 2.730469 -2.566406 L 3.132812 -6.265625 C 3.152344 -6.574219 3.296875 -6.832031 3.535156 -7.050781 C 3.769531 -7.265625 4.042969 -7.375 4.351562 -7.375 L 13.75 -7.375 C 14.0625 -7.375 14.296875 -7.265625 14.5 -7.050781 C 14.699219 -6.832031 14.773438 -6.574219 14.753906 -6.265625 L 16.230469 -6.265625 C 16.300781 -6.976562 16.101562 -7.578125 15.644531 -8.085938 C 15.191406 -8.597656 14.625 -8.832031 13.898438 -8.832031 L 4.480469 -8.832031 C 3.753906 -8.832031 3.152344 -8.597656 2.605469 -8.085938 C 2.039062 -7.558594 1.730469 -6.996094 1.65625 -6.300781 L 1.257812 -2.566406 C 1.183594 -1.859375 1.382812 -1.257812 1.839844 -0.746094 C 2.277344 -0.238281 2.859375 0 3.589844 0 L 13.003906 0 C 13.734375 0 14.335938 -0.238281 14.882812 -0.746094 C 15.445312 -1.273438 15.753906 -1.859375 15.828125 -2.566406 Z M 14.351562 -2.566406 "/></g></g></g><g fill="#00ffff" fill-opacity="1"><g transform="translate(59.477569, 18.641393)"><g><path d="M 15.0625 -7.539062 C 14.296875 -8.398438 13.296875 -8.832031 12.074219 -8.832031 L 1.914062 -8.832031 L 1 0 L 11.164062 0 C 12.386719 0 13.460938 -0.4375 14.40625 -1.292969 C 15.355469 -2.167969 15.902344 -3.207031 16.027344 -4.40625 C 16.15625 -5.628906 15.828125 -6.667969 15.0625 -7.539062 Z M 13.480469 -2.332031 C 12.859375 -1.765625 12.128906 -1.476562 11.3125 -1.476562 L 2.621094 -1.476562 L 3.242188 -7.359375 L 11.929688 -7.359375 C 12.75 -7.359375 13.40625 -7.066406 13.914062 -6.503906 C 14.445312 -5.917969 14.644531 -5.226562 14.554688 -4.40625 C 14.460938 -3.605469 14.117188 -2.914062 13.480469 -2.332031 Z M 13.480469 -2.332031 "/></g></g></g><g fill="#00ffff" fill-opacity="1"><g transform="translate(76.956933, 18.641393)"><g><path d="M 15.644531 -8.085938 C 15.207031 -8.597656 14.644531 -8.832031 13.914062 -8.832031 L 4.5 -8.832031 C 3.769531 -8.832031 3.152344 -8.597656 2.605469 -8.085938 C 2.039062 -7.558594 1.730469 -6.976562 1.65625 -6.265625 L 1 0 L 2.476562 0 L 2.859375 -3.679688 L 14.480469 -3.679688 L 14.097656 0 L 15.574219 0 L 16.230469 -6.265625 C 16.300781 -6.976562 16.101562 -7.558594 15.644531 -8.085938 Z M 14.625 -5.15625 L 3.003906 -5.15625 L 3.132812 -6.265625 C 3.152344 -6.574219 3.296875 -6.832031 3.535156 -7.050781 C 3.714844 -7.210938 3.933594 -7.320312 4.132812 -7.359375 L 13.75 -7.359375 C 14.0625 -7.359375 14.296875 -7.25 14.5 -7.03125 C 14.699219 -6.8125 14.773438 -6.558594 14.753906 -6.265625 Z M 14.625 -5.15625 "/></g></g></g><g clip-path="url(#id2)"><g fill="#00ffff" fill-opacity="1"><g transform="translate(94.436297, 18.641393)"><g><path d="M 15.644531 -8.085938 C 15.191406 -8.597656 14.625 -8.832031 13.898438 -8.832031 L 4.480469 -8.832031 C 3.753906 -8.832031 3.152344 -8.597656 2.605469 -8.085938 C 2.039062 -7.558594 1.730469 -6.996094 1.65625 -6.300781 L 1.257812 -2.566406 C 1.183594 -1.859375 1.382812 -1.257812 1.839844 -0.746094 C 2.277344 -0.238281 2.859375 0 3.589844 0 L 13.003906 0 C 13.734375 0 14.335938 -0.238281 14.882812 -0.746094 C 15.445312 -1.273438 15.753906 -1.859375 15.828125 -2.566406 L 16.230469 -6.265625 C 16.300781 -6.976562 16.101562 -7.578125 15.644531 -8.085938 Z M 13.953125 -1.804688 C 13.714844 -1.585938 13.441406 -1.476562 13.132812 -1.476562 L 3.515625 -1.476562 C 3.316406 -1.511719 3.132812 -1.621094 2.988281 -1.785156 C 2.785156 -2.003906 2.714844 -2.257812 2.730469 -2.566406 L 3.132812 -6.265625 C 3.152344 -6.574219 3.296875 -6.832031 3.535156 -7.050781 C 3.769531 -7.265625 4.042969 -7.375 4.351562 -7.375 L 13.75 -7.375 C 14.0625 -7.375 14.296875 -7.265625 14.5 -7.050781 C 14.699219 -6.832031 14.773438 -6.574219 14.753906 -6.265625 L 14.351562 -2.566406 C 14.335938 -2.277344 14.1875 -2.023438 13.953125 -1.804688 Z M 13.953125 -1.804688 "/></g></g></g></g><g fill="#ffffff" fill-opacity="1"><g transform="translate(1.616961, 18.957662)"><g><path d="M 14.351562 -2.566406 C 14.335938 -2.277344 14.1875 -2.023438 13.953125 -1.804688 C 13.714844 -1.585938 13.441406 -1.476562 13.132812 -1.476562 L 3.515625 -1.476562 C 3.316406 -1.511719 3.132812 -1.621094 2.988281 -1.785156 C 2.785156 -2.003906 2.714844 -2.257812 2.730469 -2.566406 L 3.132812 -6.265625 C 3.152344 -6.574219 3.296875 -6.832031 3.535156 -7.050781 C 3.769531 -7.265625 4.042969 -7.375 4.351562 -7.375 L 13.75 -7.375 C 14.0625 -7.375 14.296875 -7.265625 14.5 -7.050781 C 14.699219 -6.832031 14.773438 -6.574219 14.753906 -6.265625 L 16.230469 -6.265625 C 16.300781 -6.976562 16.101562 -7.578125 15.644531 -8.085938 C 15.191406 -8.597656 14.625 -8.832031 13.898438 -8.832031 L 4.480469 -8.832031 C 3.753906 -8.832031 3.152344 -8.597656 2.605469 -8.085938 C 2.039062 -7.558594 1.730469 -6.996094 1.65625 -6.300781 L 1.257812 -2.566406 C 1.183594 -1.859375 1.382812 -1.257812 1.839844 -0.746094 C 2.277344 -0.238281 2.859375 0 3.589844 0 L 13.003906 0 C 13.734375 0 14.335938 -0.238281 14.882812 -0.746094 C 15.445312 -1.273438 15.753906 -1.859375 15.828125 -2.566406 Z M 14.351562 -2.566406 "/></g></g></g><g fill="#ffffff" fill-opacity="1"><g transform="translate(19.096324, 18.957662)"><g><path d="M 15.699219 -4.898438 C 15.992188 -5.320312 16.175781 -5.753906 16.230469 -6.265625 C 16.300781 -6.957031 16.101562 -7.558594 15.644531 -8.070312 C 15.207031 -8.578125 14.625 -8.832031 13.898438 -8.832031 L 1.914062 -8.832031 L 1 0 L 2.476562 0 L 2.859375 -3.679688 L 11.546875 -3.679688 C 12.347656 -3.679688 13.003906 -3.386719 13.53125 -2.824219 C 14.023438 -2.242188 14.242188 -1.546875 14.171875 -0.746094 L 14.097656 0 L 15.574219 0 L 15.644531 -0.746094 C 15.773438 -2.023438 15.410156 -3.097656 14.570312 -3.972656 C 15.027344 -4.1875 15.390625 -4.5 15.699219 -4.898438 Z M 14.335938 -5.484375 C 14.097656 -5.265625 13.824219 -5.15625 13.515625 -5.15625 L 3.003906 -5.15625 L 3.242188 -7.359375 L 13.75 -7.359375 C 14.0625 -7.359375 14.296875 -7.25 14.5 -7.03125 C 14.699219 -6.8125 14.773438 -6.558594 14.753906 -6.265625 C 14.71875 -5.957031 14.570312 -5.683594 14.335938 -5.484375 Z M 14.335938 -5.484375 "/></g></g></g><g fill="#ffffff" fill-opacity="1"><g transform="translate(36.575688, 18.957662)"><g><path d="M 3.371094 -8.832031 L 1.914062 -8.832031 L 1 0 L 2.476562 0 Z M 3.371094 -8.832031 "/></g></g></g><g fill="#ffffff" fill-opacity="1"><g transform="translate(40.963735, 18.957662)"><g><path d="M 14.351562 -2.566406 C 14.335938 -2.277344 14.1875 -2.023438 13.953125 -1.804688 C 13.714844 -1.585938 13.441406 -1.476562 13.132812 -1.476562 L 3.515625 -1.476562 C 3.316406 -1.511719 3.132812 -1.621094 2.988281 -1.785156 C 2.785156 -2.003906 2.714844 -2.257812 2.730469 -2.566406 L 3.132812 -6.265625 C 3.152344 -6.574219 3.296875 -6.832031 3.535156 -7.050781 C 3.769531 -7.265625 4.042969 -7.375 4.351562 -7.375 L 13.75 -7.375 C 14.0625 -7.375 14.296875 -7.265625 14.5 -7.050781 C 14.699219 -6.832031 14.773438 -6.574219 14.753906 -6.265625 L 16.230469 -6.265625 C 16.300781 -6.976562 16.101562 -7.578125 15.644531 -8.085938 C 15.191406 -8.597656 14.625 -8.832031 13.898438 -8.832031 L 4.480469 -8.832031 C 3.753906 -8.832031 3.152344 -8.597656 2.605469 -8.085938 C 2.039062 -7.558594 1.730469 -6.996094 1.65625 -6.300781 L 1.257812 -2.566406 C 1.183594 -1.859375 1.382812 -1.257812 1.839844 -0.746094 C 2.277344 -0.238281 2.859375 0 3.589844 0 L 13.003906 0 C 13.734375 0 14.335938 -0.238281 14.882812 -0.746094 C 15.445312 -1.273438 15.753906 -1.859375 15.828125 -2.566406 Z M 14.351562 -2.566406 "/></g></g></g><g fill="#ffffff" fill-opacity="1"><g transform="translate(58.443099, 18.957662)"><g><path d="M 15.0625 -7.539062 C 14.296875 -8.398438 13.296875 -8.832031 12.074219 -8.832031 L 1.914062 -8.832031 L 1 0 L 11.164062 0 C 12.386719 0 13.460938 -0.4375 14.40625 -1.292969 C 15.355469 -2.167969 15.902344 -3.207031 16.027344 -4.40625 C 16.15625 -5.628906 15.828125 -6.667969 15.0625 -7.539062 Z M 13.480469 -2.332031 C 12.859375 -1.765625 12.128906 -1.476562 11.3125 -1.476562 L 2.621094 -1.476562 L 3.242188 -7.359375 L 11.929688 -7.359375 C 12.75 -7.359375 13.40625 -7.066406 13.914062 -6.503906 C 14.445312 -5.917969 14.644531 -5.226562 14.554688 -4.40625 C 14.460938 -3.605469 14.117188 -2.914062 13.480469 -2.332031 Z M 13.480469 -2.332031 "/></g></g></g><g fill="#ffffff" fill-opacity="1"><g transform="translate(75.922463, 18.957662)"><g><path d="M 15.644531 -8.085938 C 15.207031 -8.597656 14.644531 -8.832031 13.914062 -8.832031 L 4.5 -8.832031 C 3.769531 -8.832031 3.152344 -8.597656 2.605469 -8.085938 C 2.039062 -7.558594 1.730469 -6.976562 1.65625 -6.265625 L 1 0 L 2.476562 0 L 2.859375 -3.679688 L 14.480469 -3.679688 L 14.097656 0 L 15.574219 0 L 16.230469 -6.265625 C 16.300781 -6.976562 16.101562 -7.558594 15.644531 -8.085938 Z M 14.625 -5.15625 L 3.003906 -5.15625 L 3.132812 -6.265625 C 3.152344 -6.574219 3.296875 -6.832031 3.535156 -7.050781 C 3.714844 -7.210938 3.933594 -7.320312 4.132812 -7.359375 L 13.75 -7.359375 C 14.0625 -7.359375 14.296875 -7.25 14.5 -7.03125 C 14.699219 -6.8125 14.773438 -6.558594 14.753906 -6.265625 Z M 14.625 -5.15625 "/></g></g></g><g fill="#ffffff" fill-opacity="1"><g transform="translate(93.401826, 18.957662)"><g><path d="M 15.644531 -8.085938 C 15.191406 -8.597656 14.625 -8.832031 13.898438 -8.832031 L 4.480469 -8.832031 C 3.753906 -8.832031 3.152344 -8.597656 2.605469 -8.085938 C 2.039062 -7.558594 1.730469 -6.996094 1.65625 -6.300781 L 1.257812 -2.566406 C 1.183594 -1.859375 1.382812 -1.257812 1.839844 -0.746094 C 2.277344 -0.238281 2.859375 0 3.589844 0 L 13.003906 0 C 13.734375 0 14.335938 -0.238281 14.882812 -0.746094 C 15.445312 -1.273438 15.753906 -1.859375 15.828125 -2.566406 L 16.230469 -6.265625 C 16.300781 -6.976562 16.101562 -7.578125 15.644531 -8.085938 Z M 13.953125 -1.804688 C 13.714844 -1.585938 13.441406 -1.476562 13.132812 -1.476562 L 3.515625 -1.476562 C 3.316406 -1.511719 3.132812 -1.621094 2.988281 -1.785156 C 2.785156 -2.003906 2.714844 -2.257812 2.730469 -2.566406 L 3.132812 -6.265625 C 3.152344 -6.574219 3.296875 -6.832031 3.535156 -7.050781 C 3.769531 -7.265625 4.042969 -7.375 4.351562 -7.375 L 13.75 -7.375 C 14.0625 -7.375 14.296875 -7.265625 14.5 -7.050781 C 14.699219 -6.832031 14.773438 -6.574219 14.753906 -6.265625 L 14.351562 -2.566406 C 14.335938 -2.277344 14.1875 -2.023438 13.953125 -1.804688 Z M 13.953125 -1.804688 "/></g></g></g></svg>